<svg xmlns="http://www.w3.org/2000/svg" xmlns:v="https://svgstorm.com"
viewBox = "0 0 256 256"
width="32"
height="32">
<g fill="None" fill-opacity="0.0" stroke="#121212" stroke-opacity="1.00" stroke-width="0.3"><path d="
M 0.00 256.00 
L 256.00 256.00
L 256.00 0.00
L 0.00 0.00
L 0.00 256.00
M 221.00 51.00 
C 199.69 78.07 177.53 105.03 155.00 131.00
C 176.53 158.88 200.15 185.36 222.00 213.00
C 163.00 213.00 104.00 213.00 45.00 213.00
C 45.00 159.00 45.00 105.00 45.00 51.00
C 103.67 51.00 162.33 51.00 221.00 51.00 Z"/>
</g>
<g fill="None" fill-opacity="0.0" stroke="#FFFFFF" stroke-opacity="1.00" stroke-width="0.3"><path d="
M 221.00 51.00 
C 162.33 51.00 103.67 51.00 45.00 51.00
C 45.00 105.00 45.00 159.00 45.00 213.00
C 104.00 213.00 163.00 213.00 222.00 213.00
C 200.15 185.36 176.53 158.88 155.00 131.00
C 177.53 105.03 199.69 78.07 221.00 51.00
M 185.00 68.00 
C 171.34 84.89 157.99 102.31 143.00 118.00
C 136.11 112.12 134.63 102.40 126.70 97.30 C 118.76 92.20 100.49 98.42 91.00 96.00
C 91.00 101.67 91.00 107.33 91.00 113.00
C 100.00 113.00 109.00 113.00 118.00 113.00
C 118.77 119.48 130.04 123.74 131.25 129.75 C 132.45 135.77 123.75 142.18 119.70 147.70 C 115.64 153.21 97.48 148.35 91.00 150.00
C 91.00 156.00 91.00 162.00 91.00 168.00
C 100.58 165.66 118.36 171.90 126.25 166.25 C 134.13 160.60 136.53 151.53 143.00 145.00
C 157.72 160.92 171.26 178.22 185.00 195.00
C 144.00 195.00 103.00 195.00 62.00 195.00
C 62.00 152.67 62.00 110.33 62.00 68.00
C 103.00 68.00 144.00 68.00 185.00 68.00 Z"/>
</g>
<g fill="None" fill-opacity="0.0" stroke="#121212" stroke-opacity="1.00" stroke-width="0.3"><path d="
M 185.00 68.00 
C 144.00 68.00 103.00 68.00 62.00 68.00
C 62.00 110.33 62.00 152.67 62.00 195.00
C 103.00 195.00 144.00 195.00 185.00 195.00
C 171.26 178.22 157.72 160.92 143.00 145.00
C 136.53 151.53 134.13 160.60 126.25 166.25 C 118.36 171.90 100.58 165.66 91.00 168.00
C 91.00 162.00 91.00 156.00 91.00 150.00
C 97.48 148.35 115.64 153.21 119.70 147.70 C 123.75 142.18 132.45 135.77 131.25 129.75 C 130.04 123.74 118.77 119.48 118.00 113.00
C 109.00 113.00 100.00 113.00 91.00 113.00
C 91.00 107.33 91.00 101.67 91.00 96.00
C 100.49 98.42 118.76 92.20 126.70 97.30 C 134.63 102.40 136.11 112.12 143.00 118.00
C 157.99 102.31 171.34 84.89 185.00 68.00 Z"/>
</g>
<g fill="#121212" fill-opacity="1.00" stroke="None">
<path d="
M 0.00 256.00 
L 256.00 256.00
L 256.00 0.00
L 0.00 0.00
L 0.00 256.00
M 221.00 51.00 
C 199.69 78.07 177.53 105.03 155.00 131.00
C 176.53 158.88 200.15 185.36 222.00 213.00
C 163.00 213.00 104.00 213.00 45.00 213.00
C 45.00 159.00 45.00 105.00 45.00 51.00
C 103.67 51.00 162.33 51.00 221.00 51.00 Z"/>
</g>
<g fill="#FFFFFF" fill-opacity="1.00" stroke="None">
<path d="
M 221.00 51.00 
C 162.33 51.00 103.67 51.00 45.00 51.00
C 45.00 105.00 45.00 159.00 45.00 213.00
C 104.00 213.00 163.00 213.00 222.00 213.00
C 200.15 185.36 176.53 158.88 155.00 131.00
C 177.53 105.03 199.69 78.07 221.00 51.00
M 185.00 68.00 
C 171.34 84.89 157.99 102.31 143.00 118.00
C 136.11 112.12 134.63 102.40 126.70 97.30 C 118.76 92.20 100.49 98.42 91.00 96.00
C 91.00 101.67 91.00 107.33 91.00 113.00
C 100.00 113.00 109.00 113.00 118.00 113.00
C 118.77 119.48 130.04 123.74 131.25 129.75 C 132.45 135.77 123.75 142.18 119.70 147.70 C 115.64 153.21 97.48 148.35 91.00 150.00
C 91.00 156.00 91.00 162.00 91.00 168.00
C 100.58 165.66 118.36 171.90 126.25 166.25 C 134.13 160.60 136.53 151.53 143.00 145.00
C 157.72 160.92 171.26 178.22 185.00 195.00
C 144.00 195.00 103.00 195.00 62.00 195.00
C 62.00 152.67 62.00 110.33 62.00 68.00
C 103.00 68.00 144.00 68.00 185.00 68.00 Z"/>
</g>
<g fill="#121212" fill-opacity="1.00" stroke="None">
<path d="
M 185.00 68.00 
C 144.00 68.00 103.00 68.00 62.00 68.00
C 62.00 110.33 62.00 152.67 62.00 195.00
C 103.00 195.00 144.00 195.00 185.00 195.00
C 171.26 178.22 157.72 160.92 143.00 145.00
C 136.53 151.53 134.13 160.60 126.25 166.25 C 118.36 171.90 100.58 165.66 91.00 168.00
C 91.00 162.00 91.00 156.00 91.00 150.00
C 97.48 148.35 115.64 153.21 119.70 147.70 C 123.75 142.18 132.45 135.77 131.25 129.75 C 130.04 123.74 118.77 119.48 118.00 113.00
C 109.00 113.00 100.00 113.00 91.00 113.00
C 91.00 107.33 91.00 101.67 91.00 96.00
C 100.49 98.42 118.76 92.20 126.70 97.30 C 134.63 102.40 136.11 112.12 143.00 118.00
C 157.99 102.31 171.34 84.89 185.00 68.00 Z"/>
</g>
</svg>
